<svg viewBox="0 0 800 500" xmlns="http://www.w3.org/2000/svg">
  <!-- Background -->
  <rect width="800" height="500" fill="#1c2128" rx="10" ry="10"/>
  
  <!-- Dashboard header -->
  <g transform="translate(20, 20)">
    <text x="0" y="10" font-family="Arial" font-size="18" fill="#ffffff" font-weight="bold">Meta Unidash: Horizon Worlds FPS Trends</text>
    <text x="0" y="30" font-family="Arial" font-size="12" fill="#8b949e">Last 14 days | Quest 2 | Build 1.243.0 - 1.245.2</text>
  </g>
  
  <!-- Chart area -->
  <rect x="50" y="60" width="700" height="350" fill="#21262d" rx="5" ry="5"/>
  
  <!-- Y-axis labels -->
  <g transform="translate(45, 60)" font-family="Arial" font-size="12" fill="#8b949e">
    <text x="0" y="10" text-anchor="end">90</text>
    <text x="0" y="95" text-anchor="end">72</text>
    <text x="0" y="180" text-anchor="end">60</text>
    <text x="0" y="265" text-anchor="end">45</text>
    <text x="0" y="350" text-anchor="end">30</text>
  </g>
  
  <!-- Y-axis grid lines -->
  <g stroke="#30363d" stroke-width="1" stroke-dasharray="4">
    <line x1="50" y1="70" x2="750" y2="70"/>
    <line x1="50" y1="155" x2="750" y2="155"/>
    <line x1="50" y1="240" x2="750" y2="240"/>
    <line x1="50" y1="325" x2="750" y2="325"/>
    <line x1="50" y1="410" x2="750" y2="410"/>
  </g>
  
  <!-- Target FPS line -->
  <g>
    <line x1="50" y1="155" x2="750" y2="155" stroke="#f0883e" stroke-width="2" stroke-dasharray="8"/>
    <text x="755" y="155" font-family="Arial" font-size="12" fill="#f0883e" font-weight="bold">Target 72 FPS</text>
  </g>
  
  <!-- X-axis dates -->
  <g transform="translate(50, 420)" font-family="Arial" font-size="10" fill="#8b949e">
    <text x="0" y="10" text-anchor="middle">Mar 5</text>
    <text x="50" y="10" text-anchor="middle">Mar 6</text>
    <text x="100" y="10" text-anchor="middle">Mar 7</text>
    <text x="150" y="10" text-anchor="middle">Mar 8</text>
    <text x="200" y="10" text-anchor="middle">Mar 9</text>
    <text x="250" y="10" text-anchor="middle">Mar 10</text>
    <text x="300" y="10" text-anchor="middle">Mar 11</text>
    <text x="350" y="10" text-anchor="middle">Mar 12</text>
    <text x="400" y="10" text-anchor="middle">Mar 13</text>
    <text x="450" y="10" text-anchor="middle">Mar 14</text>
    <text x="500" y="10" text-anchor="middle">Mar 15</text>
    <text x="550" y="10" text-anchor="middle">Mar 16</text>
    <text x="600" y="10" text-anchor="middle">Mar 17</text>
    <text x="650" y="10" text-anchor="middle">Mar 18</text>
  </g>
  
  <!-- Build version markers -->
  <g>
    <line x1="250" y1="60" x2="250" y2="410" stroke="#58a6ff" stroke-width="1" stroke-dasharray="4"/>
    <text x="250" y="45" font-family="Arial" font-size="10" fill="#58a6ff" text-anchor="middle">v1.244.0</text>
    
    <line x1="500" y1="60" x2="500" y2="410" stroke="#58a6ff" stroke-width="1" stroke-dasharray="4"/>
    <text x="500" y="45" font-family="Arial" font-size="10" fill="#58a6ff" text-anchor="middle">v1.245.0</text>
  </g>
  
  <!-- Data lines -->
  <!-- Plaza world - blue -->
  <polyline fill="none" stroke="#1f6feb" stroke-width="2"
    points="
      50,180
      100,175
      150,170
      200,185
      250,165
      300,160
      350,155
      400,150
      450,155
      500,140
      550,145
      600,140
      650,142
      700,140
    "/>
    
  <!-- Pixel Plaza - green -->
  <polyline fill="none" stroke="#2ea043" stroke-width="2"
    points="
      50,190
      100,185
      150,190
      200,200
      250,195
      300,180
      350,170
      400,165
      450,170
      500,165
      550,160
      600,155
      650,158
      700,150
    "/>
    
  <!-- Horizon Theater - purple -->
  <polyline fill="none" stroke="#8957e5" stroke-width="2"
    points="
      50,140
      100,145
      150,155
      200,150
      250,140
      300,130
      350,125
      400,120
      450,130
      500,125
      550,120
      600,118
      650,115
      700,110
    "/>
    
  <!-- Arena - red -->
  <polyline fill="none" stroke="#cf222e" stroke-width="2"
    points="
      50,220
      100,210
      150,225
      200,230
      250,200
      300,190
      350,185
      400,180
      450,175
      500,170
      550,175
      600,165
      650,160
      700,155
    "/>
    
  <!-- Clubhouse - orange -->
  <polyline fill="none" stroke="#f0883e" stroke-width="2"
    points="
      50,160
      100,165
      150,155
      200,170
      250,150
      300,140
      350,145
      400,135
      450,140
      500,130
      550,125
      600,130
      650,125
      700,120
    "/>
    
  <!-- Alert overlay -->
  <g>
    <rect x="550" y="165" width="20" height="20" fill="#cf222e" rx="10" ry="10"/>
    <text x="560" y="180" font-family="Arial" font-size="14" fill="#ffffff" text-anchor="middle" font-weight="bold">!</text>
    <rect x="580" y="160" width="120" height="30" fill="#2d333b" rx="5" ry="5"/>
    <text x="640" y="180" font-family="Arial" font-size="11" fill="#ffffff" text-anchor="middle">Performance Regression</text>
  </g>
  
  <!-- Legend -->
  <g transform="translate(50, 450)">
    <rect width="700" height="40" fill="#21262d" rx="5" ry="5"/>
    
    <!-- Plaza world -->
    <circle cx="30" cy="20" r="5" fill="#1f6feb"/>
    <text x="45" y="24" font-family="Arial" font-size="12" fill="#ffffff">Plaza</text>
    
    <!-- Pixel Plaza -->
    <circle cx="120" cy="20" r="5" fill="#2ea043"/>
    <text x="135" y="24" font-family="Arial" font-size="12" fill="#ffffff">Pixel Plaza</text>
    
    <!-- Horizon Theater -->
    <circle cx="240" cy="20" r="5" fill="#8957e5"/>
    <text x="255" y="24" font-family="Arial" font-size="12" fill="#ffffff">Horizon Theater</text>
    
    <!-- Arena -->
    <circle cx="380" cy="20" r="5" fill="#cf222e"/>
    <text x="395" y="24" font-family="Arial" font-size="12" fill="#ffffff">Arena</text>
    
    <!-- Clubhouse -->
    <circle cx="470" cy="20" r="5" fill="#f0883e"/>
    <text x="485" y="24" font-family="Arial" font-size="12" fill="#ffffff">Clubhouse</text>
    
    <!-- Interactive -->
    <rect x="570" y="15" width="105" height="20" fill="#30363d" rx="3" ry="3"/>
    <text x="623" y="28" font-family="Arial" font-size="11" fill="#ffffff" text-anchor="middle">Add World +</text>
  </g>
  
  <!-- Meta logo -->
  <g transform="translate(730, 20)">
    <rect width="50" height="20" fill="none" rx="3" ry="3"/>
    <text x="25" y="15" font-family="Arial" font-size="14" fill="#ffffff" text-anchor="middle" font-weight="bold">Meta</text>
  </g>
</svg>